<svg width="94" height="94" viewBox="0 0 94 94" fill="none" xmlns="http://www.w3.org/2000/svg">
<path d="M94 47C94 72.9574 72.9574 94 47 94C21.0426 94 0 72.9574 0 47C0 21.0426 21.0426 0 47 0C72.9574 0 94 21.0426 94 47Z" fill="url(#paint0_radial_36_14)"/>
<path d="M94 47C94 72.9574 72.9574 94 47 94C21.0426 94 0 72.9574 0 47C0 21.0426 21.0426 0 47 0C72.9574 0 94 21.0426 94 47Z" fill="url(#paint1_radial_36_14)"/>
<path d="M69 47.5C69 58.8218 59.8218 68 48.5 68C37.1782 68 28 58.8218 28 47.5C28 36.1782 37.1782 27 48.5 27C59.8218 27 69 36.1782 69 47.5Z" fill="url(#paint2_radial_36_14)"/>
<path d="M55 47C55 50.866 51.866 54 48 54C44.134 54 41 50.866 41 47C41 43.134 44.134 40 48 40C51.866 40 55 43.134 55 47Z" fill="black"/>
<path d="M85 27C85 37.4934 76.4934 46 66 46C55.5066 46 47 37.4934 47 27C47 16.5066 55.5066 8 66 8C76.4934 8 85 16.5066 85 27Z" fill="url(#paint3_radial_36_14)"/>
<defs>
<radialGradient id="paint0_radial_36_14" cx="0" cy="0" r="1" gradientUnits="userSpaceOnUse" gradientTransform="translate(47 47) rotate(90) scale(47)">
<stop offset="0.84375" stop-color="#53B0B6"/>
<stop offset="1" stop-color="#3D5571"/>
</radialGradient>
<radialGradient id="paint1_radial_36_14" cx="0" cy="0" r="1" gradientUnits="userSpaceOnUse" gradientTransform="translate(47 47) rotate(90) scale(47)">
<stop offset="0.963542" stop-color="white" stop-opacity="0"/>
<stop offset="0.994792" stop-color="#002220"/>
</radialGradient>
<radialGradient id="paint2_radial_36_14" cx="0" cy="0" r="1" gradientUnits="userSpaceOnUse" gradientTransform="translate(47 47) rotate(90) scale(47)">
<stop offset="0.90625" stop-color="#2F7D88"/>
<stop offset="1" stop-color="#4DB3CA" stop-opacity="0.38"/>
</radialGradient>
<radialGradient id="paint3_radial_36_14" cx="0" cy="0" r="1" gradientUnits="userSpaceOnUse" gradientTransform="translate(66 27) rotate(90) scale(19)">
<stop offset="0.869792" stop-color="white"/>
<stop offset="1" stop-color="white" stop-opacity="0"/>
</radialGradient>
</defs>
</svg>
